<svg width="127" height="24" viewBox="0 0 1000 190" fill="none" xmlns="http://www.w3.org/2000/svg">
<path d="M997.524 162.059C998.073 161.82 998.697 162.215 998.697 162.813V184.185C998.697 184.505 998.509 184.796 998.216 184.925C990.341 188.409 983.421 189.66 975.25 189.66C949.719 189.66 932.004 175.852 932.004 145.371V72.1969C932.004 71.7473 931.639 71.3828 931.189 71.3828H902.337C901.887 71.3828 901.522 71.0183 901.522 70.5686V49.7919C901.522 49.3423 901.887 48.9778 902.337 48.9778H931.189C931.639 48.9778 932.004 48.6133 932.004 48.1637V8.88983C932.004 8.4402 932.368 8.0757 932.818 8.0757H957.502C957.952 8.0757 958.316 8.4402 958.316 8.88983V48.1637C958.316 48.6133 958.681 48.9778 959.131 48.9778H999.186C999.636 48.9778 1000 49.3423 1000 49.7919V70.5686C1000 71.0183 999.636 71.3828 999.186 71.3828H959.131C958.681 71.3828 958.316 71.7473 958.316 72.1969V139.379C958.316 158.397 967.435 165.171 981.503 165.171C987.309 165.171 992.44 164.273 997.524 162.059Z" fill="#141414"/>
<path d="M828.784 189.66C789.706 189.66 761.048 158.918 761.048 118.016C761.048 77.114 789.706 46.3723 828.784 46.3723C867.863 46.3723 896.52 77.114 896.52 118.016C896.52 158.918 867.863 189.66 828.784 189.66ZM828.784 166.473C851.45 166.473 869.426 148.237 869.426 118.016C869.426 87.7955 851.45 69.8194 828.784 69.8194C806.119 69.8194 788.403 87.7955 788.403 118.016C788.403 148.237 806.119 166.473 828.784 166.473Z" fill="#141414"/>
<path d="M676.388 189.66C637.31 189.66 608.652 158.918 608.652 118.016C608.652 77.114 637.31 46.3723 676.388 46.3723C715.467 46.3723 744.124 77.114 744.124 118.016C744.124 158.918 715.467 189.66 676.388 189.66ZM676.388 166.473C699.054 166.473 717.03 148.237 717.03 118.016C717.03 87.7955 699.054 69.8194 676.388 69.8194C653.723 69.8194 636.007 87.7955 636.007 118.016C636.007 148.237 653.723 166.473 676.388 166.473Z" fill="#141414"/>
<path d="M514.279 118.017C514.279 159.44 490.311 189.661 453.056 189.661C434.527 189.661 418.575 180.758 408.533 164.953C408.084 164.247 406.943 164.555 406.943 165.391V186.241C406.943 186.691 406.579 187.055 406.129 187.055H383.268C382.819 187.055 382.454 186.691 382.454 186.241V0.814138C382.454 0.364505 382.819 0 383.268 0H407.953C408.402 0 408.767 0.3645 408.767 0.814134V69.6099C408.767 70.4455 409.907 70.7546 410.356 70.0503C420.104 54.7815 435.295 46.3731 453.056 46.3731C490.05 46.3731 514.279 76.0727 514.279 118.017ZM486.924 118.017C486.924 86.7541 470.511 69.5596 447.845 69.5596C425.961 69.5596 408.767 86.4936 408.767 117.496C408.767 147.977 425.44 166.214 447.845 166.214C470.511 166.214 486.924 148.759 486.924 118.017Z" fill="#141414"/>
<path d="M291.432 189.66C251.572 189.66 224.738 160.742 224.738 117.235C224.738 76.3325 252.614 46.3723 290.65 46.3723C331.587 46.3723 358.867 79.3547 354.552 123.793C354.512 124.208 354.162 124.529 353.745 124.529H252.448C251.975 124.529 251.602 124.938 251.641 125.41C253.952 153.008 267.967 169.079 290.911 169.079C310.224 169.079 323.682 158.643 328.268 141.043C328.363 140.68 328.689 140.421 329.064 140.421H353.465C353.985 140.421 354.371 140.908 354.252 141.414C347.191 171.561 323.645 189.66 291.432 189.66ZM290.129 66.1721C269.276 66.1721 255.037 80.9274 251.939 106.164C251.879 106.646 252.257 107.074 252.742 107.074H325.745C326.211 107.074 326.582 106.677 326.553 106.212C324.987 81.1975 311.25 66.1721 290.129 66.1721Z" fill="#141414"/>
<path d="M26.2463 48.6526C26.6959 48.6526 27.06 49.0161 27.0647 49.4658C27.4335 84.7401 51.6355 121.438 58.7953 149.294C59.0165 150.154 60.3819 150.154 60.603 149.294C67.7592 121.438 91.9289 84.7378 92.2973 49.4658C92.302 49.0161 92.666 48.6526 93.1157 48.6526H118.552C119.001 48.6526 119.365 49.0162 119.37 49.4658C119.739 84.7403 143.941 121.435 151.101 149.29C151.322 150.15 152.687 150.15 152.908 149.29C160.065 121.435 184.234 84.7381 184.603 49.4658C184.607 49.0162 184.971 48.6526 185.421 48.6526H210.857C211.307 48.6526 211.671 49.0212 211.667 49.4708C211.19 100.644 166.159 141.418 165.527 186.241C165.521 186.69 165.156 187.055 164.707 187.055L139.27 187.032C138.82 187.032 138.457 186.672 138.45 186.222C138.02 157.751 115.088 122.444 106.663 96.8826C106.409 96.1129 105.275 96.1131 105.022 96.883C96.6063 122.461 73.7043 157.772 73.2227 186.247C73.2151 186.696 72.8511 187.055 72.4017 187.055L46.9643 187.032C46.515 187.032 46.1514 186.666 46.146 186.216C45.6025 141.412 0.478125 100.621 3.59401e-05 49.4708C-0.00416649 49.0211 0.36071 48.6526 0.810344 48.6526H26.2463Z" fill="#141414"/>
<path d="M567.496 186.24V73.6853H541.77C541.32 73.6853 540.956 74.0498 540.956 74.4995V186.24C540.956 186.69 541.32 187.054 541.77 187.054H566.682C567.131 187.054 567.496 186.69 567.496 186.24Z" fill="#141414"/>
<path d="M597.338 47.1455H572.173C571.718 47.1455 571.349 47.514 571.344 47.9696C571.254 56.5068 569.78 65.1271 567.496 73.6853L593.77 73.6858C594.137 73.6858 594.459 73.4406 594.554 73.0864C596.734 64.9664 598.078 56.6191 598.159 47.9746C598.163 47.519 597.794 47.1455 597.338 47.1455Z" fill="#141414"/>
</svg>
